<svg xmlns="http://www.w3.org/2000/svg" xmlns:xlink="http://www.w3.org/1999/xlink" width="122.843" height="121.739" viewBox="0 0 122.843 121.739">
  <defs>
    <clipPath id="clip-path">
      <path id="doctor-hombre-adulto-pie-derecho-oficina-hospital" d="M31.767-19.778c15.842,0,29.365,17.692,42.056,33.67,8.9,11.2,17.006,20.761,17.006,32.139,0,11.024-3.113,17.22-6.083,23.081-4.106,8.109-9.782,13.922-20.662,21.211C45.8,102.574,28.592,86.78,14.578,80.268,3.56,75.148-9.573,72.71-18.519,67.285c-3.311-2.008-14.057-8.5-11.311-21.07C-27.307,34.7-10.787,21.79-4.778,14.421,7.252-.331,17.449-19.778,31.767-19.778Z" transform="translate(30.274 19.778)" fill="#3c1c74"/>
    </clipPath>
  </defs>
  <g id="_24" data-name="24" transform="translate(0)">
    <g id="Grupo_1072178" data-name="Grupo 1072178" transform="translate(0)">
      <path id="doctor-hombre-adulto-pie-derecho-oficina-hospital-2" data-name="doctor-hombre-adulto-pie-derecho-oficina-hospital" d="M31.767-19.778c15.842,0,29.365,17.692,42.056,33.67,8.9,11.2,17.006,20.761,17.006,32.139,0,11.024-3.113,17.22-6.083,23.081-4.106,8.109-9.782,13.922-20.662,21.211C45.8,102.574,28.592,86.78,14.578,80.268,3.56,75.148-9.573,72.71-18.519,67.285c-3.311-2.008-14.057-8.5-11.311-21.07C-27.307,34.7-10.787,21.79-4.778,14.421,7.252-.331,17.449-19.778,31.767-19.778Z" transform="translate(32.014 21.795)" fill="#3c1c74"/>
      <g id="Elipse_4857" data-name="Elipse 4857" transform="translate(0)" fill="none" stroke="#3c1c74" stroke-width="1">
        <ellipse cx="11.273" cy="10.736" rx="11.273" ry="10.736" stroke="none"/>
        <ellipse cx="11.273" cy="10.736" rx="10.773" ry="10.236" fill="none"/>
      </g>
      <ellipse id="Elipse_4858" data-name="Elipse 4858" cx="5.368" cy="4.831" rx="5.368" ry="4.831" transform="translate(109.512 8.589)" fill="#3c1c74"/>
      <path id="Trazado_115346" data-name="Trazado 115346" d="M7.936,0c4.383,0,7.936,3.179,7.936,7.1,0,2.1-.505,3.936-2.342,5.038-1.186.72-3.556.842-5.594.842C3.553,12.98,0,11.022,0,7.1S3.553,0,7.936,0Z" transform="translate(22.854 108.759)" fill="#3c1c74"/>
    </g>
    <g id="corazon_3_" data-name="corazon (3)" transform="translate(5.481 7.766)">
      <path id="Trazado_868852" data-name="Trazado 868852" d="M351.656,259.075l5.545-17.055a3.037,3.037,0,0,1,5.787,1.844l-1.835,5.92Z" transform="translate(-273.376 -186.513)" fill="#fdad7c"/>
      <path id="Trazado_868853" data-name="Trazado 868853" d="M396.264,233.654a3.256,3.256,0,0,1,4.609.054l2.671-8.272A2.909,2.909,0,1,0,398,223.676l-3.685,11.886Z" transform="translate(-306.539 -172.291)" fill="#fdad7c"/>
      <path id="Trazado_868854" data-name="Trazado 868854" d="M415.084,234.352l2.671-8.272A2.915,2.915,0,0,0,416,222.453l-3.408,10.923A3.244,3.244,0,0,1,415.084,234.352Z" transform="translate(-320.75 -172.934)" fill="#f3a26f"/>
      <path id="Trazado_868855" data-name="Trazado 868855" d="M380.143,216.759a3.269,3.269,0,0,1,.22,4.312L367.649,237.1l6.885-5.285a38.528,38.528,0,0,0,13.454-19.543l2.585-8.659a2.943,2.943,0,0,0-5.619-1.751Z" transform="translate(-285.809 -155.341)" fill="#fdad7c"/>
      <path id="Trazado_868856" data-name="Trazado 868856" d="M327.977,192.14a3.377,3.377,0,0,0-3.719,2.3l-3.53,11.827a38.528,38.528,0,0,1-13.454,19.543L300.39,231.1l12.715-16.031a3.262,3.262,0,0,0-4.829-4.367l-11.445,11.2a25.086,25.086,0,0,0-10.65,8.462,32.7,32.7,0,0,0-5.049,13.871V261.64H300.39V248.851l12.92-10.569c6.964-5.7,9.46-16.025,12.108-24.631l5.282-17.17a3.383,3.383,0,0,0-2.723-4.341Z" transform="translate(-218.55 -149.339)" fill="#ffc89f"/>
      <path id="Trazado_868857" data-name="Trazado 868857" d="M375.447,272.155c-.076-.057-.155-.111-.234-.161-.031-.019-.062-.039-.093-.057a3.241,3.241,0,0,0-.305-.156l-.028-.014a3.232,3.232,0,0,0-.373-.133l-.028-.007a3.285,3.285,0,0,0-.354-.078l-.046-.007a3.284,3.284,0,0,0-1.187.039,3.27,3.27,0,0,1-.175,3.818L362.93,287.62a3.841,3.841,0,0,0,.4,5.209L376.049,276.8a3.249,3.249,0,0,0-.512-4.575c-.029-.024-.06-.045-.09-.068Z" transform="translate(-281.495 -211.068)" fill="#f7bc94"/>
      <path id="Trazado_868858" data-name="Trazado 868858" d="M380.935,192.142a3.36,3.36,0,0,0-1.156.027,3.37,3.37,0,0,1,.452,2.916l-5.282,17.17c-2.648,8.606-5.144,18.265-12.108,23.961l-13.159,10.234a1.113,1.113,0,0,0-.43.879v14.312h4.1V248.854l12.92-10.569c6.964-5.7,9.46-16.025,12.108-24.631l5.282-17.17a3.383,3.383,0,0,0-2.723-4.341Z" transform="translate(-271.508 -149.342)" fill="#f7bc94"/>
      <path id="Trazado_868859" data-name="Trazado 868859" d="M378.4,250.305l1.835-5.92a3.041,3.041,0,0,0-1.971-3.794l-4.422,14.173Z" transform="translate(-290.623 -187.035)" fill="#f3a26f"/>
      <path id="Trazado_868860" data-name="Trazado 868860" d="M437.181,204.609a2.948,2.948,0,0,0-1.564-3.507L427.6,226.518a38.547,38.547,0,0,0,6.992-13.25Z" transform="translate(-332.418 -156.336)" fill="#f3a26f"/>
      <g id="Grupo_1093988" data-name="Grupo 1093988" transform="translate(9.082 44.481)">
        <path id="Trazado_868861" data-name="Trazado 868861" d="M120.275,259.075l-5.545-17.055a3.037,3.037,0,0,0-5.787,1.844l1.835,5.92Z" transform="translate(-93.667 -230.994)" fill="#fdad7c"/>
        <path id="Trazado_868862" data-name="Trazado 868862" d="M82.992,233.654a3.256,3.256,0,0,0-4.609.054l-2.671-8.272a2.909,2.909,0,1,1,5.545-1.761l3.685,11.886Z" transform="translate(-67.83 -216.772)" fill="#fdad7c"/>
        <path id="Trazado_868863" data-name="Trazado 868863" d="M51.352,216.759a3.269,3.269,0,0,0-.22,4.312L63.847,237.1l-6.885-5.285a38.526,38.526,0,0,1-13.454-19.543l-2.585-8.659a2.943,2.943,0,0,1,5.619-1.751Z" transform="translate(-40.799 -199.822)" fill="#fdad7c"/>
      </g>
      <path id="Trazado_868864" data-name="Trazado 868864" d="M10.369,192.14a3.377,3.377,0,0,1,3.719,2.3l3.53,11.827a38.527,38.527,0,0,0,13.454,19.543l6.885,5.285L25.242,215.069a3.262,3.262,0,0,1,4.83-4.367l11.445,11.2a25.086,25.086,0,0,1,10.65,8.462,32.7,32.7,0,0,1,5.049,13.871V261.64H37.957V248.851l-12.92-10.569c-6.964-5.7-9.46-16.025-12.108-24.631l-5.282-17.17A3.383,3.383,0,0,1,10.369,192.14Z" transform="translate(-5.827 -149.339)" fill="#ffc89f"/>
      <path id="Trazado_868865" data-name="Trazado 868865" d="M112.653,292.077A25.088,25.088,0,0,0,102,283.615l-11.445-11.2a3.256,3.256,0,0,0-5.256,1.012,3.241,3.241,0,0,1,1.294.774L98.04,285.4a25.086,25.086,0,0,1,10.65,8.462,32.7,32.7,0,0,1,5.049,13.871v15.619H117.7V305.948a32.7,32.7,0,0,0-5.049-13.871Z" transform="translate(-66.313 -211.053)" fill="#f7bc94"/>
      <path id="Trazado_868866" data-name="Trazado 868866" d="M122.881,253.767l4.963,4.856h.315l-5.4-16.6a3.036,3.036,0,0,0-3.378-2.06c-.084.014-.165.034-.246.055Z" transform="translate(-92.617 -186.513)" fill="#f3a26f"/>
      <path id="Trazado_868867" data-name="Trazado 868867" d="M88.83,232.745a3.244,3.244,0,0,1,2.016.918L92.8,235.57l-3.685-11.886a2.906,2.906,0,0,0-3.438-1.971Z" transform="translate(-66.602 -172.3)" fill="#f3a26f"/>
      <path id="Trazado_868868" data-name="Trazado 868868" d="M71.356,237.1,58.641,221.069a3.269,3.269,0,0,1,.22-4.312l-4.81-14.9a2.942,2.942,0,0,0-3.315-1.995c-.1.017-.187.04-.278.065l7.548,25.587a38.5,38.5,0,0,0,6.464,6.3Z" transform="translate(-39.226 -155.34)" fill="#f3a26f"/>
      <path id="Trazado_868869" data-name="Trazado 868869" d="M365.063,30.623c0,8.671-4.9,16.37-10.9,22.55V12.783c5.218,2.007,9.589,6.686,10.686,14.715a23,23,0,0,1,.214,3.126Z" transform="translate(-275.326 -9.938)" fill="#c28ee3"/>
      <path id="Trazado_868870" data-name="Trazado 868870" d="M316.1,8.69V49.08a77.227,77.227,0,0,1-10.9,9.17V8.044a18.552,18.552,0,0,1,10.9.646Z" transform="translate(-237.262 -5.844)" fill="#52dbff"/>
      <path id="Trazado_868871" data-name="Trazado 868871" d="M267.145,9.881V60.087a88.577,88.577,0,0,1-10.9,6.6V19.069c1.473-4.707,5.826-7.973,10.9-9.188Z" transform="translate(-199.206 -7.682)" fill="#00dcab"/>
      <path id="Trazado_868872" data-name="Trazado 868872" d="M218.184,19.061V66.682a88.657,88.657,0,0,1-10.9-6.6V9.871c5.071,1.216,9.426,4.48,10.9,9.19Z" transform="translate(-161.143 -7.674)" fill="#fd0"/>
      <path id="Trazado_868873" data-name="Trazado 868873" d="M169.229,8.04V58.248a77.078,77.078,0,0,1-10.9-9.17V8.688a18.564,18.564,0,0,1,10.9-.648Z" transform="translate(-123.087 -5.843)" fill="#ff8522"/>
      <path id="Trazado_868874" data-name="Trazado 868874" d="M120.268,12.783v40.39c-6-6.18-10.9-13.879-10.9-22.55a23,23,0,0,1,.214-3.126c1.1-8.029,5.467-12.708,10.686-14.715Z" transform="translate(-85.023 -9.938)" fill="#fa496e"/>
      <path id="Trazado_868875" data-name="Trazado 868875" d="M354.164,104.476v4.01c6-6.18,10.9-13.879,10.9-22.55,0-.661-.032-1.328-.091-2C364.29,91.787,359.7,98.778,354.164,104.476Z" transform="translate(-275.326 -65.251)" fill="#a479d0"/>
      <path id="Trazado_868876" data-name="Trazado 868876" d="M305.2,185.383v4.01a77.228,77.228,0,0,0,10.9-9.17v-4.01A77.242,77.242,0,0,1,305.2,185.383Z" transform="translate(-237.262 -136.987)" fill="#2dcef9"/>
      <path id="Trazado_868877" data-name="Trazado 868877" d="M256.248,228.018a88.544,88.544,0,0,0,10.9-6.6V217.4a88.56,88.56,0,0,1-10.9,6.6Z" transform="translate(-199.206 -169.01)" fill="#10c68e"/>
      <path id="Trazado_868878" data-name="Trazado 868878" d="M207.285,221.417a88.686,88.686,0,0,0,10.9,6.6v-4.01a88.668,88.668,0,0,1-10.9-6.6Z" transform="translate(-161.143 -169.012)" fill="#ffc239"/>
      <path id="Trazado_868879" data-name="Trazado 868879" d="M158.332,176.213v4.01a77.091,77.091,0,0,0,10.9,9.17v-4.01A77.078,77.078,0,0,1,158.332,176.213Z" transform="translate(-123.087 -136.987)" fill="#ff7224"/>
      <path id="Trazado_868880" data-name="Trazado 868880" d="M109.369,85.937c0,8.671,4.9,16.37,10.9,22.55v-4.01c-5.536-5.7-10.126-12.689-10.809-20.541C109.4,84.609,109.369,85.277,109.369,85.937Z" transform="translate(-85.023 -65.252)" fill="#e23760"/>
      <path id="Trazado_868881" data-name="Trazado 868881" d="M166.541,35.014c3.392-5.873,4.7-11.822,3.9-17.681-.724-5.294-2.8-9.536-6.163-12.609A18.292,18.292,0,0,0,153.349.072a20.445,20.445,0,0,0-11.4,2.349,15.854,15.854,0,0,0-5.68,5.121,15.852,15.852,0,0,0-5.68-5.121A20.441,20.441,0,0,0,119.18.072a18.292,18.292,0,0,0-10.932,4.652c-3.365,3.073-5.439,7.315-6.163,12.609-.8,5.86.512,11.808,3.9,17.681a53.959,53.959,0,0,0,11.69,13.552,92.335,92.335,0,0,0,17.855,11.947,1.687,1.687,0,0,0,1.463,0A92.335,92.335,0,0,0,154.85,48.567a53.96,53.96,0,0,0,11.69-13.552Zm-53.785,3.823c-4.976-6.025-8.43-13.2-7.356-21.05.768-5.616,3.394-9.882,7.356-12.275Zm21.8,17.364c-1.827-1.021-4.522-2.618-7.554-4.709V38.321a1.673,1.673,0,1,0-3.346,0V49.07a72.879,72.879,0,0,1-7.551-6.556V4.034a17.137,17.137,0,0,1,7.551-.474V31.629a1.673,1.673,0,0,0,3.346,0V4.447a12.444,12.444,0,0,1,7.554,7.1Zm10.9-4.638c-3.039,2.087-5.739,3.677-7.551,4.685V11.78a12.327,12.327,0,0,1,7.551-7.3Zm3.346-2.41V3.574a17.15,17.15,0,0,1,7.554.439v9.556a1.673,1.673,0,1,0,3.346,0v-8.1c4.006,2.384,6.661,6.669,7.435,12.323.7,5.1-.47,10.321-3.469,15.525a40.72,40.72,0,0,1-3.966,5.643v-18.7a1.673,1.673,0,1,0-3.346,0V42.616a72.113,72.113,0,0,1-7.554,6.538Z" transform="translate(-79.183 0)"/>
      <path id="Trazado_868882" data-name="Trazado 868882" d="M325.9,186.947a5.045,5.045,0,0,0-8.645.164,4.611,4.611,0,0,0-7,2.39l-.783,2.426a4.563,4.563,0,0,0-6.907,2.456l-.513,1.654a4.706,4.706,0,0,0-7.116,2.446l-5.307,16.326a26.894,26.894,0,0,0-10.666,8.747c-.379.539-.746,1.109-1.09,1.7a1.673,1.673,0,1,0,2.884,1.7c.3-.509.617-1,.943-1.468a23.637,23.637,0,0,1,9.86-7.854,1.673,1.673,0,0,0,.592-.374l11.445-11.2a1.589,1.589,0,0,1,2.349,2.132l-12.715,16.031a1.673,1.673,0,0,0,2.329,2.366l6.885-5.286A39.958,39.958,0,0,0,316.488,200.9l3.524-11.806a1.7,1.7,0,0,1,1.871-1.15,1.725,1.725,0,0,1,1.374,2.2l-5.282,17.17q-.408,1.327-.817,2.7c-2.3,7.658-4.9,16.338-10.751,21.127l-12.92,10.568a1.673,1.673,0,0,0-.614,1.295v11.115H276.96V238.478a32.607,32.607,0,0,1,1.27-5.726,1.673,1.673,0,1,0-3.191-1.006,34.764,34.764,0,0,0-1.417,6.482q-.008.08-.008.16v17.405a1.673,1.673,0,0,0,1.673,1.673h19.26a1.673,1.673,0,0,0,1.673-1.673v-12l12.307-10.066c6.647-5.437,9.4-14.638,11.838-22.756.272-.906.54-1.8.81-2.678l5.282-17.17a5.057,5.057,0,0,0-.552-4.18Zm-25.184,13.4-1.71,5.517-4.328,4.235,3.44-10.582a1.364,1.364,0,0,1,2.6.831Zm7.4-4.223v0l-2.042,6.325a4.942,4.942,0,0,0-2.487-.064l.324-1.047h0v0l1.849-5.964a1.236,1.236,0,1,1,2.355.751Zm7.747-4.837h0l-2.584,8.658a36.948,36.948,0,0,1-3.854,8.677,4.965,4.965,0,0,0-.527-4.031l4.542-14.065a1.27,1.27,0,0,1,2.424.759Z" transform="translate(-212.707 -143.494)"/>
      <path id="Trazado_868883" data-name="Trazado 868883" d="M47.709,223.556a26.891,26.891,0,0,0-10.666-8.747l-5.307-16.326a4.706,4.706,0,0,0-7.116-2.446l-.513-1.654a4.562,4.562,0,0,0-6.906-2.456l-.783-2.426a4.611,4.611,0,0,0-7-2.39,5.022,5.022,0,0,0-5.126-2.471,5.056,5.056,0,0,0-4.071,6.487L5.5,208.3c.27.877.538,1.772.81,2.678,2.433,8.118,5.19,17.319,11.838,22.756L30.457,243.8v12a1.673,1.673,0,0,0,1.673,1.673h19.26a1.673,1.673,0,0,0,1.673-1.673V238.388c0-.053,0-.107-.008-.16a34.15,34.15,0,0,0-5.346-14.672ZM26.1,199.221a1.361,1.361,0,0,1,2.454.3l3.44,10.582-4.328-4.235-1.71-5.516h0A1.357,1.357,0,0,1,26.1,199.221Zm-7.45-4.078a1.244,1.244,0,0,1,2.261.231l1.849,5.965h0l.326,1.05a4.928,4.928,0,0,0-2.488.061l-2.043-6.327a1.234,1.234,0,0,1,.094-.982Zm-7.7-4.891a1.28,1.28,0,0,1,2.288.278l4.541,14.065a4.966,4.966,0,0,0-.527,4.03,36.946,36.946,0,0,1-3.854-8.677l-2.584-8.658A1.246,1.246,0,0,1,10.946,190.252Zm38.771,63.87H33.8V243.006a1.673,1.673,0,0,0-.614-1.295l-12.92-10.569c-5.855-4.789-8.456-13.469-10.751-21.127q-.411-1.371-.817-2.7l-5.282-17.17A1.705,1.705,0,0,1,6.664,189.1L10.188,200.9A39.959,39.959,0,0,0,24.226,221.3l6.885,5.286a1.673,1.673,0,0,0,2.329-2.366L20.725,208.184a1.6,1.6,0,0,1,.107-2.1,1.575,1.575,0,0,1,1.115-.479h.019a1.574,1.574,0,0,1,1.107.452l11.445,11.2a1.689,1.689,0,0,0,.589.373,23.635,23.635,0,0,1,9.863,7.855c3.778,5.377,4.657,12.234,4.745,13v15.643Z" transform="translate(0 -143.494)"/>
      <path id="path5184" d="M14.918,286.152v8.832H6.085v8.832h8.832v8.832H23.75v-8.832h8.832v-8.832H23.75v-8.832Z" transform="translate(37.288 -269.377)" fill="#fff" stroke="#12263f" stroke-width="3"/>
    </g>
  </g>
</svg>
