<svg xmlns="http://www.w3.org/2000/svg" width="63.888" height="69.669" viewBox="0 0 63.888 69.669">
  <g id="Grupo_1097254" data-name="Grupo 1097254" transform="translate(-209.342 -12913)">
    <g id="medico" transform="translate(181.341 12913)">
      <g id="Grupo_1097230" data-name="Grupo 1097230" transform="translate(35.93 15.491)">
        <path id="Trazado_873700" data-name="Trazado 873700" d="M93.942,117.717l-3.473-3.876H87.795a1.59,1.59,0,0,0-1.522,1.6l0,2.7c0,1.758,1.414,2.726,4.2,2.726Z" transform="translate(-86.269 -113.841)" fill="#e5c093" fill-rule="evenodd"/>
      </g>
      <g id="Grupo_1097231" data-name="Grupo 1097231" transform="translate(66.304 15.491)">
        <path id="Trazado_873701" data-name="Trazado 873701" d="M316.811,115.437a1.59,1.59,0,0,0-1.522-1.6h-2.674l-3.123,3.51,3.123,3.51c2.786,0,4.2-.968,4.2-2.726v-2.7Z" transform="translate(-309.492 -113.841)" fill="#e5c093" fill-rule="evenodd"/>
      </g>
      <g id="Grupo_1097232" data-name="Grupo 1097232" transform="translate(29.02 40.021)">
        <path id="Trazado_873702" data-name="Trazado 873702" d="M79.6,308.707a2.816,2.816,0,1,1-5.633,0C73.968,305,79.6,305,79.6,308.707Zm7.39,12.205c0-5.524.023-9.237,0-14.649-.154-3.053-6.342-8.485-11.023-10.509l-3.814-1.642H50.33l-5.163,2.221-4.4,1.889c-3.506,1.507-5.255,2.884-5.275,7.49-.023,5.713,0,9.487,0,15.2a1.793,1.793,0,0,0,1.734,1.827H85.257A1.793,1.793,0,0,0,86.99,320.913Z" transform="translate(-35.487 -294.112)" fill="#eceaed" fill-rule="evenodd"/>
      </g>
      <g id="Grupo_1097233" data-name="Grupo 1097233" transform="translate(48.035 45.163)">
        <path id="Trazado_873703" data-name="Trazado 873703" d="M177.778,340.422l2.751-.929v-3.751l-1.923-3.585-2.543-.251-.828,3.342Z" transform="translate(-175.235 -331.906)" fill="#b6b1b7" fill-rule="evenodd"/>
      </g>
      <g id="Grupo_1097234" data-name="Grupo 1097234" transform="translate(48.355 32.218)">
        <path id="Trazado_873704" data-name="Trazado 873704" d="M177.585,236.775v8.639l6.423,2.826,6.423-2.826v-8.639c0-.023-.116.069-.143.085C185.869,239.473,181.973,239.431,177.585,236.775Z" transform="translate(-177.585 -236.771)" fill="#f1d0a5" fill-rule="evenodd"/>
      </g>
      <g id="Grupo_1097235" data-name="Grupo 1097235" transform="translate(40.125 7.787)">
        <path id="Trazado_873705" data-name="Trazado 873705" d="M146.405,69c-8.792-13.763-15.257-17.525-29.3,0v2.949a9.222,9.222,0,0,0,.262,2.136,17.582,17.582,0,0,0,7.128,9.757c.035-.008.744.482.84.54a15.836,15.836,0,0,0,2.751,1.326,9.7,9.7,0,0,0,7.34,0,15.865,15.865,0,0,0,2.755-1.326c.054-.035.613-.393.616-.393a17.641,17.641,0,0,0,7.351-9.9,9.424,9.424,0,0,0,.258-2.136V69Z" transform="translate(-117.104 -57.223)" fill="#ffe4c1" fill-rule="evenodd"/>
      </g>
      <g id="Grupo_1097236" data-name="Grupo 1097236" transform="translate(40.126 1.057)">
        <path id="Trazado_873706" data-name="Trazado 873706" d="M123.039,20.68a9.545,9.545,0,0,0,2.03,1.184c5.332,2.336,14.024,1.538,15.855-1.2.763,2.625,2.8,5.613,5.483,5.613V20.306c0-7.922-5.953-12.109-12.09-12.537h-2.092a12.3,12.3,0,0,0-8.792,4.26c-4.423.667-6.315,4.873-6.319,8.277l0,1.9,0,4.071C121.656,26.115,122.007,23.351,123.039,20.68Z" transform="translate(-117.106 -7.769)" fill="#d19a6e" fill-rule="evenodd"/>
      </g>
      <g id="Grupo_1097237" data-name="Grupo 1097237" transform="translate(47.565 18.232)">
        <path id="Trazado_873707" data-name="Trazado 873707" d="M190.656,133.984a20.783,20.783,0,0,1-.258,4.8c-1.164,4.958-5.776,9.834-10.723,11.623a9.644,9.644,0,0,1-7.336,0c-.189-.066-.374-.139-.559-.216.258.177.52.347.79.509a15.835,15.835,0,0,0,2.751,1.326,9.7,9.7,0,0,0,7.34,0,15.866,15.866,0,0,0,2.755-1.326c3.618-2.19,6.993-6.153,7.968-10.3a9.424,9.424,0,0,0,.258-2.136v-2.949A4.368,4.368,0,0,1,190.656,133.984Z" transform="translate(-171.781 -133.984)" fill="#f1d0a5" fill-rule="evenodd"/>
      </g>
      <g id="Grupo_1097238" data-name="Grupo 1097238" transform="translate(61.605 1.998)">
        <path id="Trazado_873708" data-name="Trazado 873708" d="M282.782,26.278a11.883,11.883,0,0,0-7.821-11.6,11.855,11.855,0,0,1,4.835,9.977v6.261a4.381,4.381,0,0,0,2.986,1.326V26.278Z" transform="translate(-274.961 -14.682)" fill="#c38c66" fill-rule="evenodd"/>
      </g>
      <g id="Grupo_1097239" data-name="Grupo 1097239" transform="translate(56.227 45.163)">
        <path id="Trazado_873709" data-name="Trazado 873709" d="M238.18,340.422l2.543-5.174-1.041-3.342-2.33.251-1.919,3.585.235,3.887Z" transform="translate(-235.433 -331.906)" fill="#b6b1b7" fill-rule="evenodd"/>
      </g>
      <g id="Grupo_1097240" data-name="Grupo 1097240" transform="translate(51.407 42.326)">
        <path id="Trazado_873710" data-name="Trazado 873710" d="M204.831,317.727l1.919-3.585.726-2.6-4.094-.491-3.371.773v2.315l1.923,3.585h2.9Z" transform="translate(-200.011 -311.054)" fill="#ffe07d" fill-rule="evenodd"/>
      </g>
      <g id="Grupo_1097241" data-name="Grupo 1097241" transform="translate(54.778 39.504)">
        <path id="Trazado_873711" data-name="Trazado 873711" d="M231.526,299.318l4.173-8.485-4.489-.517-6.423,2.822,3.367,3.088Z" transform="translate(-224.787 -290.316)" fill="#c3ddff" fill-rule="evenodd"/>
      </g>
      <g id="Grupo_1097242" data-name="Grupo 1097242" transform="translate(43.863 39.504)">
        <path id="Trazado_873712" data-name="Trazado 873712" d="M152.114,296.226l3.371-3.088-6.423-2.822-4.492.517,4.173,8.485Z" transform="translate(-144.57 -290.316)" fill="#c3ddff" fill-rule="evenodd"/>
      </g>
      <g id="Grupo_1097243" data-name="Grupo 1097243" transform="translate(67.5 51.798)">
        <path id="Trazado_873713" data-name="Trazado 873713" d="M321.1,386.3a2.818,2.818,0,1,0-2.816-2.818A2.816,2.816,0,0,0,321.1,386.3Z" transform="translate(-318.284 -380.664)" fill="#b6b1b7" fill-rule="evenodd"/>
      </g>
      <g id="Grupo_1097244" data-name="Grupo 1097244" transform="translate(50.578 47.67)">
        <path id="Trazado_873714" data-name="Trazado 873714" d="M202.318,356.34l-2.747-4.68-1.451-1.329-1.447,1.329-2.751,4.68,4.2,8.535Z" transform="translate(-193.923 -350.331)" fill="#ffe07d" fill-rule="evenodd"/>
      </g>
      <g id="Grupo_1097245" data-name="Grupo 1097245" transform="translate(52.297 48.999)">
        <path id="Trazado_873715" data-name="Trazado 873715" d="M213.229,364.776l-2.747-4.68h-2.9l-1.033,1.758h2.782l2.9,4.942Z" transform="translate(-206.552 -360.096)" fill="#ffd064" fill-rule="evenodd"/>
      </g>
      <g id="Grupo_1097246" data-name="Grupo 1097246" transform="translate(51.407 42.326)">
        <path id="Trazado_873716" data-name="Trazado 873716" d="M206.75,314.142l-2.366-2.167-1-.921-1.006.921-2.366,2.167.867,1.611,2.4-2.205,2.539,2.328Z" transform="translate(-200.011 -311.054)" fill="#ffd064" fill-rule="evenodd"/>
      </g>
      <g id="Grupo_1097247" data-name="Grupo 1097247" transform="translate(57.845 39.504)">
        <path id="Trazado_873717" data-name="Trazado 873717" d="M255.171,290.833l-4.489-.517-1.179.517-.231.1-1.946.856,1.807.567,4.585,1.43Z" transform="translate(-247.326 -290.316)" fill="#9dc6fb" fill-rule="evenodd"/>
      </g>
      <g id="Grupo_1097248" data-name="Grupo 1097248" transform="translate(64.237 40.021)">
        <path id="Trazado_873718" data-name="Trazado 873718" d="M299.568,295.754l-3.814-1.642-1.453,2.953,3.622,1.13a10.618,10.618,0,0,1,2.458,1.06c0-.328-.023-.652-.054-.971a6.1,6.1,0,0,1-.759-2.529Z" transform="translate(-294.301 -294.112)" fill="#dad8db" fill-rule="evenodd"/>
      </g>
      <g id="Grupo_1097249" data-name="Grupo 1097249" transform="translate(74.828 50.769)">
        <path id="Trazado_873719" data-name="Trazado 873719" d="M377.834,389.153c0-5.524.023-9.237,0-14.649l-.7.694c-.285.224-.428.347-.57.351s-.285-.127-.574-.351l-2.111-2.1c.008,5.1-.008,11.384-.008,16.053a1.8,1.8,0,0,1-1.738,1.827H376.1A1.793,1.793,0,0,0,377.834,389.153Z" transform="translate(-372.139 -373.1)" fill="#dad8db" fill-rule="evenodd"/>
      </g>
      <g id="Grupo_1097250" data-name="Grupo 1097250" transform="translate(48.355 34.943)">
        <path id="Trazado_873720" data-name="Trazado 873720" d="M181.527,258.5a14.636,14.636,0,0,1-1.842-.632,16.309,16.309,0,0,1-2.1-1.072v2.363c5.722,2.733,9.131,1.6,10.021,1.2.3-.135.239,0,.239.351v1.781l1.175-.517,1.41-.617V256.8a.977.977,0,0,0-.085.05.012.012,0,0,0-.008,0,15.351,15.351,0,0,1-2.662,1.272,10.759,10.759,0,0,1-3.668.721A9.629,9.629,0,0,1,181.527,258.5Z" transform="translate(-177.585 -256.8)" fill="#e5c093" fill-rule="evenodd"/>
      </g>
      <g id="Grupo_1097251" data-name="Grupo 1097251" transform="translate(69.487 35.654)">
        <path id="Trazado_873721" data-name="Trazado 873721" d="M349.857,272.663l.9-.894a6.111,6.111,0,0,0,0-8.4c-2.023-2.1-5.29-1.573-7.452.378-.4.359-.543.536-.647.536s-.251-.177-.647-.536c-2.162-1.951-5.433-2.475-7.455-.378a6.027,6.027,0,0,0-1.668,4.109c0,.185,0,.366.015.551a6.1,6.1,0,0,0,.759,2.529,5.97,5.97,0,0,0,.894,1.207l.905.894,6.623,6.573c.289.224.431.347.574.351s.285-.127.57-.351l.7-.694Z" transform="translate(-332.888 -262.024)" fill="#ff8086" fill-rule="evenodd"/>
      </g>
      <g id="Grupo_1097252" data-name="Grupo 1097252" transform="translate(76.462 35.655)">
        <path id="Trazado_873722" data-name="Trazado 873722" d="M395.04,263.379a4.662,4.662,0,0,0-4.82-1.11c.058.054.116.112.173.17a6.111,6.111,0,0,1,0,8.4l-.9.894-5.348,5.3.112.112,2.111,2.1c.289.224.431.347.574.351s.285-.127.57-.351l.7-.694,5.93-5.879.9-.894a6.111,6.111,0,0,0,0-8.4Z" transform="translate(-384.144 -262.033)" fill="#e5646e" fill-rule="evenodd"/>
      </g>
      <g id="Grupo_1097253" data-name="Grupo 1097253" transform="translate(28.001 0)">
        <path id="Trazado_873723" data-name="Trazado 873723" d="M177.7,163.523a1.02,1.02,0,0,0,1.021-1.021v-.717a1.021,1.021,0,0,0-2.041,0v.717A1.021,1.021,0,0,0,177.7,163.523Z" transform="translate(-156.451 -138.889)"/>
        <path id="Trazado_873724" data-name="Trazado 873724" d="M261.6,163.5a1.02,1.02,0,0,0,1.021-1.021v-.7a1.021,1.021,0,0,0-2.041,0v.7A1.021,1.021,0,0,0,261.6,163.5Z" transform="translate(-228.933 -138.889)"/>
        <path id="Trazado_873725" data-name="Trazado 873725" d="M208.1,214.976h.066a3.581,3.581,0,0,0,2.591-1.15,1.021,1.021,0,1,0-1.473-1.413,1.545,1.545,0,0,1-1.118.522h-.026a1.4,1.4,0,0,1-1.024-.493,1.021,1.021,0,0,0-1.527,1.355A3.422,3.422,0,0,0,208.1,214.976Z" transform="translate(-181.206 -183.239)"/>
        <path id="Trazado_873726" data-name="Trazado 873726" d="M180.65,62.739a19.134,19.134,0,0,0,6.232-1.094,1.021,1.021,0,1,0-.666-1.929,15.535,15.535,0,0,1-8.154.737c-2.108-.424-3.46-1.32-3.864-2.021a1.021,1.021,0,0,0-1.768,1.021C173.428,61.179,176.5,62.739,180.65,62.739Z" transform="translate(-152.66 -50.039)"/>
        <path id="Trazado_873727" data-name="Trazado 873727" d="M88.093,36.294c-2.559-2.653-6.452-1.828-8.833.3-2.385-2.126-6.278-2.949-8.837-.3a6.914,6.914,0,0,0-1.345,2A12.17,12.17,0,0,0,64,34.2a18.031,18.031,0,0,0,6.165-9.326,11.108,11.108,0,0,0,.233-1.389c3.809-.336,4.248-2.66,4.248-3.7v-2.7A2.615,2.615,0,0,0,72.1,14.47H70.447v-.876A12.958,12.958,0,0,0,61.566.9a15.95,15.95,0,0,0-8.62-.54,12.78,12.78,0,0,0-7.037,4.02c-4.66.921-6.793,5.372-6.8,9.217v.878H37.455a2.615,2.615,0,0,0-2.542,2.615l0,2.7c0,1.044.439,3.368,4.248,3.7a10.762,10.762,0,0,0,.237,1.39,17.878,17.878,0,0,0,5.853,9.064,12.122,12.122,0,0,0-7.375,7.543L33.9,43.193c-3.9,1.677-5.884,3.441-5.892,8.427L28,56.978A1.021,1.021,0,0,0,29.02,58h0a1.021,1.021,0,0,0,1.021-1.019l.008-5.358c.007-4.125,1.424-5.165,4.657-6.555l2.618-1.125a11.938,11.938,0,0,0-.081,1.36v3.166c-2.353.436-4.477,2.475-4.477,5.994v2.9a1.021,1.021,0,0,0,2.041,0v-2.9c0-2.792,1.706-4.042,3.4-4.042a3.206,3.206,0,0,1,2.309.96A4.286,4.286,0,0,1,41.6,54.462v2.9a1.021,1.021,0,0,0,2.041,0v-2.9c0-3.459-2.052-5.488-4.358-5.97V45.3a9.787,9.787,0,0,1,.282-2.324l3.807-1.637,3.734,7.593,6.753,13.731a1.03,1.03,0,0,0,1.832,0L66.177,41.342l2.385,1.027a7.1,7.1,0,0,0,.7,2.117c.021.278.035.553.035.817v5.614a3.837,3.837,0,1,0,2.041,0v-3.9l.006.006,6.623,6.573a1.8,1.8,0,0,0,1.546.619c0,2.533,0,4.76,0,7.088,0,1.713-.006,3.5-.006,5.524a.779.779,0,0,1-.725.807H72.59V62.214a1.021,1.021,0,0,0-2.041,0v5.413H39V62.214a1.021,1.021,0,0,0-2.041,0v5.414H30.778a.779.779,0,0,1-.725-.807c0-.906,0-1.641,0-2.324,0-.916,0-1.74,0-2.763a1.021,1.021,0,0,0-1.021-1.018h0a1.021,1.021,0,0,0-1.018,1.023c0,1.02,0,1.842,0,2.755,0,.684,0,1.42,0,2.328a2.811,2.811,0,0,0,2.766,2.848h48a2.811,2.811,0,0,0,2.766-2.848c0-2.026,0-3.809.006-5.52,0-2.809.01-5.471,0-8.7l2.375-2.357a1.021,1.021,0,0,0-1.438-1.449L79.257,52l-6.478-6.429-.9-.885a5.117,5.117,0,0,1-.942-5.562,4.932,4.932,0,0,1,.95-1.408c1.682-1.743,4.366-1.081,6.037.427.109.1.2.182.271.252a1.5,1.5,0,0,0,1.061.548,1.478,1.478,0,0,0,1.046-.536c.075-.071.167-.158.285-.263,1.671-1.508,4.353-2.169,6.033-.427a5.071,5.071,0,0,1,.007,6.972l-.893.886a1.021,1.021,0,0,0,1.438,1.449l.9-.894.016-.016a7.129,7.129,0,0,0,0-9.813ZM70.447,16.613v-.1H72.1a.579.579,0,0,1,.5.575v2.7c0,.371,0,1.406-2.155,1.652V16.613ZM39.1,19.561h0v1.875c-2.154-.246-2.155-1.281-2.155-1.65l0-2.7a.579.579,0,0,1,.5-.575h1.653l0,3.049ZM41.154,13.6c0-3.106,1.711-6.7,5.45-7.269a1.02,1.02,0,0,0,.641-.367c2.906-3.589,8.643-4.909,13.64-3.139a10.859,10.859,0,0,1,7.521,10.773v4.74c-1.584-.639-2.9-2.664-3.482-4.67a1.03,1.03,0,0,0-1.829-.282c-.806,1.206-3.812,2.079-7.308,2.122a19.234,19.234,0,0,1-6.128-.847c-3.223-1.288-3.806-2.245-4.058-2.6a1.021,1.021,0,0,0-1.668,1.176,6.906,6.906,0,0,0,.919,1.05l-.116.325c-.717,2.03-1.22,3.452-3.59,3.838ZM41.38,24.41a8.233,8.233,0,0,1-.234-1.9V20.5c3.7-.471,4.66-2.811,5.429-4.973a18.938,18.938,0,0,0,8.951,2.016l.287,0c2.661-.033,5.783-.544,7.7-1.811.99,2.209,2.714,4.235,4.889,4.731v2.046a8.435,8.435,0,0,1-.231,1.9c-1.061,4.515-5.393,9.2-10.076,10.9a8.694,8.694,0,0,1-6.645,0c-4.685-1.7-9.016-6.382-10.074-10.9Zm8,14.427V36.649c.456.216.917.411,1.383.58a10.711,10.711,0,0,0,8.034,0c.467-.169.93-.365,1.387-.581v2.19l-5.4,2.374Zm7.5,6.793-1.256,2.348H53.94l-1.259-2.347,2.1-1.921ZM43.447,39.089l-2.788,1.2a10.11,10.11,0,0,1,6.634-4.807l.042.028v3.086l-3.582.412a2.068,2.068,0,0,0-.306.083Zm1.971,1.78,2.78-.32,4.737,2.081-4.585,4.2Zm3.872,7.872,1.84-1.686,1.03,1.921-1.5,2.551ZM54.778,59.9l-3.04-6.181,2.175-3.7h1.729l2.173,3.7Zm4.117-8.373-1.5-2.552,1.028-1.921,1.84,1.687Zm2.308-4.7-4.582-4.2,4.738-2.082,2.777.319Zm4.9-7.744a1.025,1.025,0,0,0-.305-.083l-3.579-.412V35.721a10.1,10.1,0,0,1,5.366,4.006Zm6.007,15.527a1.8,1.8,0,1,1-1.8-1.8A1.8,1.8,0,0,1,72.113,54.616Z" transform="translate(-28.001 0)"/>
      </g>
      <g id="corazon_4_" data-name="corazon (4)" transform="translate(-34.021 33.874)">
        <path id="Trazado_873745" data-name="Trazado 873745" d="M357.974,19.019c0,3.031-1.711,5.722-3.81,7.882V12.783a6.008,6.008,0,0,1,3.735,5.143A8.043,8.043,0,0,1,357.974,19.019Z" transform="translate(-232.675 -11.788)" fill="#c28ee3"/>
        <path id="Trazado_873746" data-name="Trazado 873746" d="M309.011,7.927V22.045a26.993,26.993,0,0,1-3.81,3.205V7.7a6.485,6.485,0,0,1,3.81.226Z" transform="translate(-187.522 -6.932)" fill="#52dbff"/>
        <path id="Trazado_873747" data-name="Trazado 873747" d="M260.057,9.881V27.43a30.962,30.962,0,0,1-3.809,2.308V13.092a5.068,5.068,0,0,1,3.809-3.211Z" transform="translate(-142.378 -9.112)" fill="#00dcab"/>
        <path id="Trazado_873748" data-name="Trazado 873748" d="M211.095,13.083V29.729a30.989,30.989,0,0,1-3.81-2.308V9.871a5.07,5.07,0,0,1,3.81,3.212Z" transform="translate(-97.225 -9.103)" fill="#fd0"/>
        <path id="Trazado_873749" data-name="Trazado 873749" d="M162.141,7.7v17.55a26.943,26.943,0,0,1-3.809-3.205V7.925a6.489,6.489,0,0,1,3.809-.227Z" transform="translate(-52.081 -6.93)" fill="#ff8522"/>
        <path id="Trazado_873750" data-name="Trazado 873750" d="M113.179,12.783V26.9c-2.1-2.16-3.81-4.851-3.81-7.882a8.039,8.039,0,0,1,.075-1.093A6.008,6.008,0,0,1,113.179,12.783Z" transform="translate(-6.928 -11.788)" fill="#fa496e"/>
        <path id="Trazado_873751" data-name="Trazado 873751" d="M354.164,91.115v1.4c2.1-2.16,3.81-4.851,3.81-7.882,0-.231-.011-.464-.032-.7A12.194,12.194,0,0,1,354.164,91.115Z" transform="translate(-232.675 -77.404)" fill="#a479d0"/>
        <path id="Trazado_873752" data-name="Trazado 873752" d="M305.2,179.418v1.4a26.992,26.992,0,0,0,3.81-3.205v-1.4A27,27,0,0,1,305.2,179.418Z" transform="translate(-187.522 -162.502)" fill="#2dcef9"/>
        <path id="Trazado_873753" data-name="Trazado 873753" d="M256.248,221.115a30.951,30.951,0,0,0,3.809-2.308v-1.4a30.955,30.955,0,0,1-3.809,2.308Z" transform="translate(-142.378 -200.489)" fill="#10c68e"/>
        <path id="Trazado_873754" data-name="Trazado 873754" d="M207.285,218.809a31,31,0,0,0,3.81,2.308v-1.4a31,31,0,0,1-3.81-2.308Z" transform="translate(-97.225 -200.49)" fill="#ffc239"/>
        <path id="Trazado_873755" data-name="Trazado 873755" d="M158.332,176.213v1.4a26.947,26.947,0,0,0,3.809,3.205v-1.4A26.943,26.943,0,0,1,158.332,176.213Z" transform="translate(-52.081 -162.502)" fill="#ff7224"/>
        <path id="Trazado_873756" data-name="Trazado 873756" d="M109.369,84.636c0,3.031,1.711,5.722,3.81,7.882v-1.4a12.194,12.194,0,0,1-3.778-7.18C109.38,84.171,109.369,84.4,109.369,84.636Z" transform="translate(-6.928 -77.405)" fill="#e23760"/>
        <path id="Trazado_873757" data-name="Trazado 873757" d="M124.466,12.239a9.591,9.591,0,0,0,1.364-6.18,7.062,7.062,0,0,0-2.154-4.407A6.394,6.394,0,0,0,119.855.026a7.146,7.146,0,0,0-3.986.821,5.542,5.542,0,0,0-1.986,1.79A5.541,5.541,0,0,0,111.9.847a7.145,7.145,0,0,0-3.986-.821,6.394,6.394,0,0,0-3.821,1.626,7.061,7.061,0,0,0-2.154,4.407,9.592,9.592,0,0,0,1.364,6.18,18.861,18.861,0,0,0,4.086,4.737,32.275,32.275,0,0,0,6.241,4.176.59.59,0,0,0,.511,0,32.274,32.274,0,0,0,6.241-4.176A18.861,18.861,0,0,0,124.466,12.239Zm-18.8,1.336c-1.739-2.106-2.947-4.613-2.571-7.358a5.7,5.7,0,0,1,2.571-4.291Zm7.619,6.069c-.639-.357-1.581-.915-2.64-1.646v-4.6a.585.585,0,0,0-1.169,0v3.757a25.475,25.475,0,0,1-2.639-2.292V1.41a5.99,5.99,0,0,1,2.639-.166v9.811a.585.585,0,0,0,1.169,0v-9.5a4.35,4.35,0,0,1,2.64,2.482Zm3.809-1.621c-1.062.729-2.006,1.285-2.64,1.638V4.118a4.309,4.309,0,0,1,2.64-2.552Zm1.169-.843V1.249a6,6,0,0,1,2.64.153v3.34a.585.585,0,0,0,1.169,0V1.91a5.69,5.69,0,0,1,2.6,4.307,8.448,8.448,0,0,1-1.212,5.427,14.232,14.232,0,0,1-1.386,1.972V7.082a.585.585,0,0,0-1.169,0V14.9a25.208,25.208,0,0,1-2.64,2.285Z" transform="translate(0 0)"/>
      </g>
    </g>
  </g>
</svg>
