<svg xmlns="http://www.w3.org/2000/svg" width="84.945" height="84.945" viewBox="0 0 84.945 84.945">
  <g id="c1" transform="translate(-180 -12568)">
    <path id="Trazado_861607" data-name="Trazado 861607" d="M42.473,0A42.473,42.473,0,1,1,0,42.473,42.473,42.473,0,0,1,42.473,0Z" transform="translate(180 12568)" fill="#ffb6c8"/>
    <g id="orgullo_4_" data-name="orgullo (4)" transform="translate(197.637 12588.811)">
      <path id="Trazado_861989" data-name="Trazado 861989" d="M21.966,30.095a16.137,16.137,0,0,1,8.028,2.139,3.261,3.261,0,0,0,3.23,0,16.137,16.137,0,0,1,8.028-2.139c8.111,0,14.465,7.135,14.465,16.242,0,5.833-2.844,17.1-21.892,27.061a4.759,4.759,0,0,1-4.431,0C10.345,63.439,7.5,52.17,7.5,46.337c0-9.107,6.354-16.242,14.465-16.242Z" transform="translate(-6.773 -29.349)" fill="#bd80e1"/>
      <g id="Grupo_1088055" data-name="Grupo 1088055" transform="translate(23.38 0.746)">
        <path id="Trazado_861990" data-name="Trazado 861990" d="M252.1,30.095c-.517,0-1.02.026-1.513.073,7.431.766,13.067,7.592,13.067,16.169,0,5.833-2.844,17.1-21.893,27.061a4.731,4.731,0,0,1-.76.318,4.753,4.753,0,0,0,3.671-.318c19.048-9.959,21.892-21.228,21.892-27.061C266.564,37.23,260.21,30.095,252.1,30.095Z" transform="translate(-241.001 -30.095)" fill="#af66da"/>
      </g>
      <path id="Trazado_861991" data-name="Trazado 861991" d="M85.169,35.576H44.044A13.759,13.759,0,0,1,54.964,30.1a16.138,16.138,0,0,1,8.028,2.138,3.261,3.261,0,0,0,3.229,0A16.14,16.14,0,0,1,74.25,30.1,13.759,13.759,0,0,1,85.169,35.576Z" transform="translate(-39.771 -29.349)" fill="#fe646f"/>
      <g id="Grupo_1088056" data-name="Grupo 1088056" transform="translate(32.963 0.746)">
        <path id="Trazado_861992" data-name="Trazado 861992" d="M341.3,30.1c-.518,0-1.022.026-1.515.073a13.848,13.848,0,0,1,9.524,5.408h2.91A13.759,13.759,0,0,0,341.3,30.1Z" transform="translate(-339.781 -30.095)" fill="#fd4755"/>
      </g>
      <path id="Trazado_861993" data-name="Trazado 861993" d="M57.117,94.817H9.239A17.018,17.018,0,0,1,12.616,86.6H53.741A17.019,17.019,0,0,1,57.117,94.817Z" transform="translate(-8.343 -80.368)" fill="#fe7d43"/>
      <path id="Trazado_861994" data-name="Trazado 861994" d="M440.867,86.6h-2.91a17.018,17.018,0,0,1,3.377,8.222h2.91A17.017,17.017,0,0,0,440.867,86.6Z" transform="translate(-395.469 -80.368)" fill="#fd6930"/>
      <path id="Trazado_861995" data-name="Trazado 861995" d="M55.716,173.883a19.908,19.908,0,0,1-.855,5.684H8.355a19.908,19.908,0,0,1-.855-5.684,19.05,19.05,0,0,1,.169-2.538H55.547A19.035,19.035,0,0,1,55.716,173.883Z" transform="translate(-6.772 -156.896)" fill="#ffd15b"/>
      <path id="Trazado_861996" data-name="Trazado 861996" d="M469.286,171.345h-2.91a19.058,19.058,0,0,1,.169,2.538,19.908,19.908,0,0,1-.855,5.684h2.91a19.907,19.907,0,0,0,.855-5.684A19.028,19.028,0,0,0,469.286,171.345Z" transform="translate(-420.511 -156.896)" fill="#ffc344"/>
      <path id="Trazado_861997" data-name="Trazado 861997" d="M62.818,256.1a25.619,25.619,0,0,1-4.3,8.222h-37.9a25.623,25.623,0,0,1-4.3-8.222Z" transform="translate(-14.73 -233.424)" fill="#00f2a6"/>
      <path id="Trazado_861998" data-name="Trazado 861998" d="M425.656,256.1a25.616,25.616,0,0,1-4.3,8.222h2.91a25.623,25.623,0,0,0,4.3-8.222Z" transform="translate(-380.478 -233.424)" fill="#05e39c"/>
      <path id="Trazado_861999" data-name="Trazado 861999" d="M98.55,340.845a40.8,40.8,0,0,1-8.671,8.222H69.317a40.8,40.8,0,0,1-8.671-8.222Z" transform="translate(-54.763 -309.952)" fill="#60b7ff"/>
      <path id="Trazado_862000" data-name="Trazado 862000" d="M340.643,340.845a40.8,40.8,0,0,1-8.671,8.222h2.91a40.8,40.8,0,0,0,8.671-8.222Z" transform="translate(-299.766 -309.952)" fill="#26a6fe"/>
      <path id="Trazado_862001" data-name="Trazado 862001" d="M145.212,107.135l1.556-1.556a1.455,1.455,0,0,0-2.057-2.057l-1.556,1.556-1.209-1.209a1.455,1.455,0,1,0-2.057,2.057l1.209,1.209-2.226,2.226a8.333,8.333,0,0,0-11.607,11.607l-2.226,2.226-1.209-1.209a1.455,1.455,0,0,0-2.057,2.057l1.209,1.209-1.556,1.556a1.455,1.455,0,1,0,2.057,2.057l1.556-1.556,1.209,1.209a1.455,1.455,0,0,0,2.057-2.057l-1.209-1.209,2.226-2.226a8.333,8.333,0,0,0,11.607-11.607l2.226-2.226,1.209,1.209a1.455,1.455,0,1,0,2.057-2.057ZM134.1,121.623a5.431,5.431,0,1,1,5.431-5.431A5.437,5.437,0,0,1,134.1,121.623Z" transform="translate(-109.261 -95.268)" fill="#fff7f3"/>
      <g id="Grupo_1088057" data-name="Grupo 1088057" transform="translate(0 0)">
        <path id="Trazado_862002" data-name="Trazado 862002" d="M34.479,22.423a16.849,16.849,0,0,0-3.5.366.728.728,0,1,0,.3,1.423A13.2,13.2,0,0,1,43.8,27.9H5.87c4.247-4.647,11.637-5.171,16.991-1.982a3.965,3.965,0,0,0,3.948,0c.438-.249.889-.478,1.342-.682a.728.728,0,0,0-.6-1.327c-.494.223-.986.473-1.463.744a2.521,2.521,0,0,1-2.511,0C12.659,18.316-.05,26.039,0,39.392c.119,7.79,4.169,14.174,10.337,19.7A.728.728,0,0,0,11.3,58a37.951,37.951,0,0,1-3.908-3.973h3.836a2.181,2.181,0,0,0,3.508,2.49l1.041-1.041c.682.679,1.177,1.339,2.238,1.334a2.191,2.191,0,0,0,2.1-2.782h22.16a41.5,41.5,0,0,1-7.393,6.767H14.792q-.483-.352-.949-.708a.728.728,0,0,0-.884,1.156A64.863,64.863,0,0,0,22.281,67.1a5.486,5.486,0,0,0,5.107,0C46.777,56.962,49.671,45.389,49.671,39.392c0-9.516-6.673-16.969-15.192-16.969ZM26.712,65.81a4.045,4.045,0,0,1-3.754,0,68.837,68.837,0,0,1-6.068-3.562H32.784A68.627,68.627,0,0,1,26.712,65.81ZM32.6,38.652l1.071-1.071h.448l.471.471a2.19,2.19,0,0,0,3.443-.471h10.1a18.252,18.252,0,0,1-.588,6.767H33.846A9.028,9.028,0,0,0,32.6,38.652ZM4.767,29.36c.122-.011,40.149.021,40.26-.011a16.229,16.229,0,0,1,2.9,6.778H38.279a2.164,2.164,0,0,0-.6-1.16l-.695-.695,1.041-1.041a2.182,2.182,0,1,0-3.086-3.086l-1.041,1.041L33.2,30.49a2.189,2.189,0,0,0-3.725,1.543c-.005,1.06.656,1.558,1.334,2.238l-1.294,1.294a9.093,9.093,0,0,0-10.207.576c-.176-.045-17.378,0-17.557-.016a16.229,16.229,0,0,1,2.9-6.778.728.728,0,0,0,.122.011Zm11,13.97a9.135,9.135,0,0,0,.058,1.019H2.123a18.489,18.489,0,0,1-.578-6.767H17.822A9,9,0,0,0,15.768,43.329ZM2.571,45.8H16.112a9.006,9.006,0,0,0,.96,2.2L15.778,49.3l-.695-.695a2.189,2.189,0,0,0-3.725,1.543c-.005,1.06.656,1.558,1.334,2.238l-.183.183H6.237A25.054,25.054,0,0,1,2.571,45.8ZM18.53,55.139a.73.73,0,0,1-1.028,0L16.292,53.93a.728.728,0,0,0-1.029,0l-1.556,1.556a.727.727,0,1,1-1.028-1.028L14.235,52.9a.728.728,0,0,0,0-1.029l-1.209-1.209a.727.727,0,0,1,1.028-1.028l1.209,1.209a.728.728,0,0,0,1.029,0l2.226-2.226a.728.728,0,0,0,.081-.932A7.606,7.606,0,0,1,29.193,37.094a.727.727,0,0,0,.932-.081l2.226-2.226a.728.728,0,0,0,0-1.029l-1.209-1.209A.727.727,0,0,1,32.17,31.52l1.209,1.209a.732.732,0,0,0,1.029,0l1.556-1.556a.731.731,0,0,1,1.241.514.722.722,0,0,1-.213.514l-1.556,1.556a.728.728,0,0,0,0,1.029L36.646,36a.722.722,0,0,1,.213.514.73.73,0,0,1-1.241.514l-1.209-1.209a.728.728,0,0,0-1.029,0L31.153,38.04a.728.728,0,0,0-.081.932,7.638,7.638,0,0,1-6.236,11.969,7.553,7.553,0,0,1-4.357-1.376.728.728,0,0,0-.932.081l-2.226,2.226a.728.728,0,0,0,0,1.029l1.209,1.209A.73.73,0,0,1,18.53,55.139Zm.517-2.569-.183-.183,1.294-1.294a9.113,9.113,0,0,0,13.4-5.29H47.089a25.262,25.262,0,0,1-3.662,6.767Z" transform="translate(0 -22.405)"/>
        <path id="Trazado_862003" data-name="Trazado 862003" d="M198.726,186.933c8.158-.31,8.157-12.008,0-12.317a6.158,6.158,0,0,0,0,12.317Zm0-1.455a4.7,4.7,0,0,1-4-2.229h7.995A4.7,4.7,0,0,1,198.726,185.477Zm-3.326-8.029a4.712,4.712,0,0,1,7.916,4.344h-9.181A4.7,4.7,0,0,1,195.4,177.449Z" transform="translate(-173.891 -159.85)"/>
      </g>
    </g>
  </g>
</svg>
