<svg xmlns="http://www.w3.org/2000/svg" width="84.945" height="84.945" viewBox="0 0 84.945 84.945">
  <g id="c3" transform="translate(-180.027 -12767.268)">
    <path id="Trazado_861608" data-name="Trazado 861608" d="M42.473,0A42.473,42.473,0,1,1,0,42.473,42.473,42.473,0,0,1,42.473,0Z" transform="translate(180.027 12767.268)" fill="#ffb6c8"/>
    <g id="filled_outline" data-name="filled outline" transform="translate(182.975 12769.731)">
      <path id="Trazado_862004" data-name="Trazado 862004" d="M114.335,185.54v-4.77l-3.18.795L104,180.77v-3.18h7.155l3.451-.986a15.7,15.7,0,0,1,4.313-.6h.372a15.7,15.7,0,0,1,4.313.6l3.45.986h7.155v3.18l-7.155.795-3.18-.795v4.77Z" transform="translate(-78.865 -144.136)" fill="#529fff"/>
      <path id="Trazado_862005" data-name="Trazado 862005" d="M336,192.248v-5.42a2.6,2.6,0,0,1,1.972-2.526l1.207-.3h4.77l1.208.3a2.6,2.6,0,0,1,1.972,2.526v6.215Z" transform="translate(-287.811 -151.341)" fill="#e6af89"/>
      <path id="Trazado_862006" data-name="Trazado 862006" d="M53.937,182.783l-.408-4.559a2.385,2.385,0,0,0-1.97-2.107l-2.545-.436H44.947l-1.1-1.418L40.3,175.681l.765,1.935,1.364,6.36Z" transform="translate(-21.495 -142.572)" fill="#57a865"/>
      <path id="Trazado_862007" data-name="Trazado 862007" d="M88.528,184.967a2.384,2.384,0,0,1-4.558-.427l.307.4h4.068Z" transform="translate(-60.826 -151.828)" fill="#57a865"/>
      <path id="Trazado_862008" data-name="Trazado 862008" d="M89.339,279.449l-5.167-.795a33.977,33.977,0,0,0-10.335,0h0a33.984,33.984,0,0,1-10.335,0h0a33.977,33.977,0,0,0-10.335,0L48,279.449V257.19l5.167-.795a33.977,33.977,0,0,1,10.335,0h0a33.985,33.985,0,0,0,10.335,0h0a33.977,33.977,0,0,1,10.335,0l5.167.795Z" transform="translate(-28.43 -216.186)" fill="#ffa6b7"/>
      <path id="Trazado_862009" data-name="Trazado 862009" d="M63.686,102.265a2.41,2.41,0,0,0,.244.012,2.385,2.385,0,0,0,.788-4.636c0-.044.007-.089.007-.134A1.589,1.589,0,0,0,62.5,96.051a1.685,1.685,0,0,0-3.051-.106,1.584,1.584,0,0,0-1.877,1.563c0,.045,0,.089.007.134a2.385,2.385,0,0,0,1.139,4.61Z" transform="translate(-35.615 -71.209)" fill="#6a6c65"/>
      <path id="Trazado_862010" data-name="Trazado 862010" d="M57.009,25.061l-.285.531-.531-.285a2.013,2.013,0,0,0-2.632.665h0a1.832,1.832,0,0,0-.225,1.538h0a1.832,1.832,0,0,0,1.052,1.164l3.73,1.547,2.255-3.35a1.832,1.832,0,0,0,.234-1.551h0a1.832,1.832,0,0,0-1.037-1.157h0A2.013,2.013,0,0,0,57.009,25.061Z" transform="translate(-33.166 -7.241)" fill="#7a80dd"/>
      <path id="Trazado_862011" data-name="Trazado 862011" d="M220.765,115.975l-.527-.527a2.434,2.434,0,0,1-.588-2.491h0A1.4,1.4,0,0,1,220.98,112h0a1.4,1.4,0,0,1,.99.41h0a1.313,1.313,0,0,0,.929.385h1.214a2.657,2.657,0,0,1,1.188.28h0a1.862,1.862,0,0,1,1.029,1.665h0a1.861,1.861,0,0,1-.2.832l-.6,1.2-1.59-.795Z" transform="translate(-182.911 -86.496)" fill="#ee9d0d"/>
      <path id="Trazado_862012" data-name="Trazado 862012" d="M89.339,292.37l-5.167-.795a33.977,33.977,0,0,0-10.335,0h0a33.985,33.985,0,0,1-10.335,0h0a33.977,33.977,0,0,0-10.335,0L48,292.37v-3.18l5.167-.795a33.977,33.977,0,0,1,10.335,0h0a33.985,33.985,0,0,0,10.335,0h0a33.977,33.977,0,0,1,10.335,0l5.167.795Z" transform="translate(-28.43 -245.007)" fill="#e42a3c"/>
      <path id="Trazado_862013" data-name="Trazado 862013" d="M89.339,324.382l-5.167-.795a33.983,33.983,0,0,0-10.335,0h0a33.984,33.984,0,0,1-10.335,0h0a33.985,33.985,0,0,0-10.335,0L48,324.382V321.2l5.167-.795a33.983,33.983,0,0,1,10.335,0h0a33.983,33.983,0,0,0,10.335,0h0a33.983,33.983,0,0,1,10.335,0l5.167.795Z" transform="translate(-28.43 -273.837)" fill="#fd7422"/>
      <path id="Trazado_862014" data-name="Trazado 862014" d="M89.339,388.37l-5.167-.795a33.977,33.977,0,0,0-10.335,0h0a33.985,33.985,0,0,1-10.335,0h0a33.977,33.977,0,0,0-10.335,0L48,388.37v-3.18l5.167-.795a33.977,33.977,0,0,1,10.335,0h0a33.985,33.985,0,0,0,10.335,0h0a33.977,33.977,0,0,1,10.335,0l5.167.795Z" transform="translate(-28.43 -331.467)" fill="#57a865"/>
      <path id="Trazado_862015" data-name="Trazado 862015" d="M89.339,356.37l-5.167-.795a33.977,33.977,0,0,0-10.335,0h0a33.985,33.985,0,0,1-10.335,0h0a33.977,33.977,0,0,0-10.335,0L48,356.37v-3.18l5.167-.795a33.979,33.979,0,0,1,10.335,0h0a33.983,33.983,0,0,0,10.335,0h0a33.979,33.979,0,0,1,10.335,0l5.167.795Z" transform="translate(-28.43 -302.647)" fill="#ffc864"/>
      <path id="Trazado_862016" data-name="Trazado 862016" d="M89.339,420.37l-5.167-.795a33.977,33.977,0,0,0-10.335,0h0a33.983,33.983,0,0,1-10.335,0h0a33.977,33.977,0,0,0-10.335,0L48,420.37v-3.18l5.167-.795a33.977,33.977,0,0,1,10.335,0h0a33.985,33.985,0,0,0,10.335,0h0a33.977,33.977,0,0,1,10.335,0l5.167.795Z" transform="translate(-28.43 -360.287)" fill="#5ebef7"/>
      <path id="Trazado_862017" data-name="Trazado 862017" d="M89.339,452.37l-5.167-.795a33.977,33.977,0,0,0-10.335,0h0a33.985,33.985,0,0,1-10.335,0h0a33.977,33.977,0,0,0-10.335,0L48,452.37v-3.18l5.167-.795a33.977,33.977,0,0,1,10.335,0h0a33.981,33.981,0,0,0,10.335,0h0a33.977,33.977,0,0,1,10.335,0l5.167.795Z" transform="translate(-28.43 -389.107)" fill="#7a80dd"/>
      <path id="Trazado_862018" data-name="Trazado 862018" d="M29.556,61.159l-1.192-3.007L27.9,51.837l.462-1.25-.795-1.908h-1.7A1.391,1.391,0,0,0,24.48,50.07V52.1l-.049,4.893a7.948,7.948,0,0,0,.556,3l1.02,2.581Z" transform="translate(-7.203 -29.468)" fill="#c99978"/>
      <rect id="Rectángulo_397187" data-name="Rectángulo 397187" width="3.18" height="2.385" rx="1.192" transform="translate(29.109 38.223)" fill="#c99978"/>
      <rect id="Rectángulo_397188" data-name="Rectángulo 397188" width="3.18" height="2.385" rx="1.192" transform="translate(56.139 39.018)" fill="#e6af89"/>
      <rect id="Rectángulo_397189" data-name="Rectángulo 397189" width="3.18" height="2.385" rx="1.192" transform="translate(48.189 39.018)" fill="#e6af89"/>
      <path id="Trazado_862019" data-name="Trazado 862019" d="M359.559,115.18l-.466-.466a1.59,1.59,0,0,1,0-2.249h0a1.59,1.59,0,0,1,1.124-.466h3.076a3.421,3.421,0,0,1,2.846,1.523h0a3.421,3.421,0,0,1,.574,1.9v1.349a2.385,2.385,0,0,1-2.385,2.385h0l-.994.027.994-2.412-.795-1.59Z" transform="translate(-308.19 -86.496)" fill="#7a4922"/>
      <path id="Trazado_862020" data-name="Trazado 862020" d="M365.565,191.155l.439-.879a3.367,3.367,0,0,0,.356-1.506h0a3.367,3.367,0,0,0-.356-1.506l-.439-.879V184h-4.77v2.385l-.439.879A3.367,3.367,0,0,0,360,188.77h0a3.367,3.367,0,0,0,.356,1.506l.439.879v.795h4.77Z" transform="translate(-309.426 -151.341)" fill="#e42a3c"/>
      <path id="Trazado_862021" data-name="Trazado 862021" d="M85.914,156.77h0a2.385,2.385,0,0,0,2.385-2.385V152h-3.18l-1.59,1.564v.821A2.385,2.385,0,0,0,85.914,156.77Z" transform="translate(-60.429 -122.521)" fill="#c99978"/>
      <path id="Trazado_862022" data-name="Trazado 862022" d="M234.385,156.77h0A2.385,2.385,0,0,1,232,154.385V152h3.18l1.59.795v1.59A2.385,2.385,0,0,1,234.385,156.77Z" transform="translate(-194.146 -122.521)" fill="#f6bb92"/>
      <path id="Trazado_862023" data-name="Trazado 862023" d="M370.385,148.77h0A2.385,2.385,0,0,1,368,146.385V144h3.975l.795,1.59v.795A2.385,2.385,0,0,1,370.385,148.77Z" transform="translate(-316.631 -115.316)" fill="#e6af89"/>
      <path id="Trazado_862024" data-name="Trazado 862024" d="M61.029,40.218l-.916-.141v-4.59a3.393,3.393,0,0,0-1.731-2.962,3.17,3.17,0,0,0,.936-2.251V28.924A4.216,4.216,0,0,0,55.1,24.709H52.027a2.385,2.385,0,0,0-1.686,4.071l.233.233v2.056a3.168,3.168,0,0,0,.14.934l-.745.186a3.4,3.4,0,0,0-1.263.614s-4.769-1.363-5.287-1.459v-.883l.515-1.029a2.67,2.67,0,0,0,.28-1.188,2.642,2.642,0,0,0-1.468-2.376A3.47,3.47,0,0,0,41.2,25.5H39.988a.515.515,0,0,1-.367-.152,2.2,2.2,0,0,0-3.636.858,3.211,3.211,0,0,0,.78,3.3l.293.293v1.536c-.517.1-4.881,1.315-4.881,1.315H29.6l-.995-.171a3.186,3.186,0,0,0,.062-.624v-.02a3.18,3.18,0,0,0,1.208-5.932,2.389,2.389,0,0,0-2.354-2,2.413,2.413,0,0,0-.268.015q-.077-.093-.163-.18a2.466,2.466,0,0,0-1.243-.672l2.022-3a2.627,2.627,0,0,0-1.151-3.884,2.793,2.793,0,0,0-3.48,1.094,2.793,2.793,0,0,0-3.5,1.01,10.306,10.306,0,0,1-1.063.124A2.189,2.189,0,0,0,16.482,20.6l-.049,6.915a8.7,8.7,0,0,0,.612,3.3l1.02,2.581.741,1.873,1.047,4.881-.4.062a.8.8,0,0,0-.675.786V63.263a.795.795,0,0,0,.916.786l5.167-.795a33.15,33.15,0,0,1,10.093,0,34.748,34.748,0,0,0,10.577,0,33.15,33.15,0,0,1,10.093,0l5.167.795a.795.795,0,0,0,.916-.786V41a.8.8,0,0,0-.674-.786Zm-2.506-4.731v2.777a1.993,1.993,0,0,0-.4-.04H57.65a4.13,4.13,0,0,0-.361-2.656l-.355-.711V33.677l.22.055a1.806,1.806,0,0,1,1.37,1.755Zm0,4.724a.4.4,0,0,1-.4.4h-.795a.4.4,0,1,1,0-.795h.795A.4.4,0,0,1,58.524,40.211ZM51.465,26.532a.789.789,0,0,1,.562-.233H55.1a2.626,2.626,0,0,1,2.626,2.626v1.349a1.591,1.591,0,0,1-.795,1.377V30.274a.794.794,0,0,0-.084-.356l-.795-1.59a.8.8,0,0,0-.711-.439H51.7l-.233-.233a.8.8,0,0,1,0-1.124Zm2.288,7.717a3.159,3.159,0,0,0,1.59-.428v1.223a.794.794,0,0,0,.084.356l.439.879a2.572,2.572,0,0,1,0,2.3l-.394.787a34.966,34.966,0,0,0-3.6-.323l-.232-.464a2.572,2.572,0,0,1,0-2.3l.439-.879a.794.794,0,0,0,.084-.355V33.821A3.159,3.159,0,0,0,53.754,34.249Zm-1.59-3.18v-1.59h2.689l.491.983v.607a1.59,1.59,0,0,1-3.18,0Zm-3.18,4.418a1.806,1.806,0,0,1,1.37-1.755l.22-.055v1.179l-.355.711a4.13,4.13,0,0,0-.361,2.657h-.476a1.993,1.993,0,0,0-.4.04Zm.4,4.327h.795a.4.4,0,1,1,0,.795h-.795a.4.4,0,1,1,0-.795Zm-11.887-13.1a.606.606,0,0,1,1-.237,2.1,2.1,0,0,0,1.491.617H41.2a1.871,1.871,0,0,1,.833.2,1.061,1.061,0,0,1,.59.954,1.071,1.071,0,0,1-.113.477l-.243.486-.879-.439a.794.794,0,0,0-.355-.084H38.183l-.293-.293A1.63,1.63,0,0,1,37.494,26.713Zm4.335,4.052v1.1a1.59,1.59,0,1,1-3.18,0v-1.59h2.2Zm-5.871,2.467c.422-.121.852-.223,1.284-.306a3.179,3.179,0,0,0,5.993,0c.432.083.861.185,1.279.3l3.15.924a3.4,3.4,0,0,0-.271,1.332v.924L45.2,35.862a.795.795,0,0,0-.987.771v2.935a33.131,33.131,0,0,1-7.95,0V36.633a.795.795,0,0,0-.988-.771l-2.391.6-.059-.862c0-.009,0-.018,0-.028a3.16,3.16,0,0,0-.452-1.328C32.418,34.238,35.958,33.232,35.958,33.232Zm11.436,4.817v1.116c-.53.049-1.062.109-1.59.182v-1.7Zm-12.72-.4v1.7c-.533-.074-1.069-.136-1.605-.185l-.074-1.092Zm-3.181,1.775a.4.4,0,0,1-.4.387H30.3a.4.4,0,0,1,0-.795H31.1a.4.4,0,0,1,.392.343Zm-5.53-14.553a.887.887,0,0,1,.189.28.795.795,0,0,0,1.05.416.788.788,0,0,1,.317-.067.8.8,0,0,1,.795.795c0,.023,0,.045,0,.068a.8.8,0,0,0,.529.816,1.589,1.589,0,0,1-.175,3.051v-.755a.8.8,0,0,0-.795-.795H24.69a.8.8,0,0,0-.557.229l-1.458,1.435L21.944,28.5l-.083-1.136a1.577,1.577,0,0,1,.364-.186.8.8,0,0,0,.529-.816c0-.023,0-.045,0-.068a.79.79,0,0,1,.939-.781.8.8,0,0,0,.851-.42.89.89,0,0,1,1.424-.225Zm1.112,5.4v1.59a1.59,1.59,0,1,1-3.18,0v-.488l1.121-1.1Zm-5.4-5.452L21.5,22.483l.024-.065,2.442,1.013a2.481,2.481,0,0,0-.39.318q-.08.08-.153.168A2.383,2.383,0,0,0,21.674,24.822Zm.977-6.055.531.285a.8.8,0,0,0,1.076-.324l.285-.531a1.212,1.212,0,0,1,1.549-.545,1.037,1.037,0,0,1,.454,1.533l-1.892,2.81-2.747-1.139-.015-.042-.738-1.771A1.211,1.211,0,0,1,22.651,18.766ZM18.524,30.236a7.118,7.118,0,0,1-.5-2.7l.049-6.93a.6.6,0,0,1,.6-.6h1.167l.471,1.13-.354.957c-.04.107.415,6.648.415,6.648.006.081.954,2.505.954,2.505l-2.07.828Zm1.785,4.516-.474-1.2,1.211-.484,1.04-.416.871,1.14c.011.015.023.028.035.042a3.174,3.174,0,0,0,4.868.139l2.069.355a1.6,1.6,0,0,1,1.312,1.392l.117,1.727a1.982,1.982,0,0,0-.262-.02H30.3a1.989,1.989,0,0,0-.4.041l-.124-1.308a.8.8,0,1,0-1.583.15L28.4,38.5a.792.792,0,0,0,.047.2,1.961,1.961,0,0,0-.1.348,34.93,34.93,0,0,0-3.733.369l-3.189.491S20.325,34.792,20.309,34.751Zm39.8,27.585-4.251-.654a34.748,34.748,0,0,0-10.577,0,33.15,33.15,0,0,1-10.093,0,34.748,34.748,0,0,0-10.577,0l-4.251.654V60.765l4.493-.691a33.15,33.15,0,0,1,10.093,0,34.748,34.748,0,0,0,10.577,0,33.15,33.15,0,0,1,10.093,0l4.493.691Zm0-3.18L55.862,58.5a34.742,34.742,0,0,0-10.577,0,33.15,33.15,0,0,1-10.093,0,34.748,34.748,0,0,0-10.577,0l-4.251.654V57.585l4.493-.691a33.15,33.15,0,0,1,10.093,0,34.748,34.748,0,0,0,10.577,0,33.15,33.15,0,0,1,10.093,0l4.493.691Zm0-3.18-4.251-.654a34.748,34.748,0,0,0-10.577,0,33.15,33.15,0,0,1-10.093,0,34.748,34.748,0,0,0-10.577,0l-4.251.654V54.405l4.493-.691a33.15,33.15,0,0,1,10.093,0,34.748,34.748,0,0,0,10.577,0,33.15,33.15,0,0,1,10.093,0l4.493.691Zm0-3.18-4.251-.654a34.742,34.742,0,0,0-10.577,0,33.15,33.15,0,0,1-10.093,0,34.748,34.748,0,0,0-10.577,0l-4.251.654V51.225l4.493-.691a33.15,33.15,0,0,1,10.093,0,34.748,34.748,0,0,0,10.577,0,33.15,33.15,0,0,1,10.093,0l4.493.691Zm0-3.18-4.251-.654a34.748,34.748,0,0,0-10.577,0,33.15,33.15,0,0,1-10.093,0,34.748,34.748,0,0,0-10.577,0l-4.251.654V48.045l4.493-.691a33.15,33.15,0,0,1,10.093,0,34.748,34.748,0,0,0,10.577,0,33.15,33.15,0,0,1,10.093,0l4.493.691Zm0-3.18-4.251-.654a34.741,34.741,0,0,0-10.577,0,33.15,33.15,0,0,1-10.093,0,34.748,34.748,0,0,0-10.577,0l-4.251.654V44.865l4.493-.691a33.15,33.15,0,0,1,10.093,0,34.748,34.748,0,0,0,10.577,0,33.15,33.15,0,0,1,10.093,0l4.493.691Zm0-3.18L55.862,42.6a34.748,34.748,0,0,0-10.577,0,33.15,33.15,0,0,1-10.093,0,34.748,34.748,0,0,0-10.577,0l-4.251.654V41.686l4.493-.691a33.31,33.31,0,0,1,3.874-.364,1.983,1.983,0,0,0,1.57.773H31.1a1.982,1.982,0,0,0,1.5-.684c.787.064,1.579.156,2.357.275a34.742,34.742,0,0,0,10.574,0c.645-.1,1.3-.179,1.946-.24a1.99,1.99,0,0,0,1.91,1.444h.795a1.99,1.99,0,0,0,1.938-1.553,33.331,33.331,0,0,1,3.383.331A1.99,1.99,0,0,0,57.331,42.2h.795a1.981,1.981,0,0,0,1.421-.6l.567.087Z" transform="translate(0)"/>
    </g>
  </g>
</svg>
