<svg id="icon" xmlns="http://www.w3.org/2000/svg" width="54.259" height="54.259" viewBox="0 0 54.259 54.259">
  <g id="_038---Support" data-name="038---Support">
    <path id="Shape" d="M49.347,55.189,48.6,56.826a1.809,1.809,0,0,1-2.4.9l-11.512-5.29a1.809,1.809,0,0,1-.886-2.4l.76-1.646a1.809,1.809,0,0,1,2.4-.886l11.5,5.281a1.648,1.648,0,0,1,.714.615,1.784,1.784,0,0,1,.172,1.791Z" transform="translate(-3.219 -4.53)" fill="#ee13ba"/>
    <path id="Shape-2" data-name="Shape" d="M49.316,53.4a1.648,1.648,0,0,0-.714-.615L37.1,47.5a1.809,1.809,0,0,0-1.995.33l10.785,4.951a1.648,1.648,0,0,1,.714.615,1.784,1.784,0,0,1,.172,1.791l-.751,1.637a1.793,1.793,0,0,1-.405.563l.723.332a1.809,1.809,0,0,0,2.4-.9l.751-1.637a1.784,1.784,0,0,0-.174-1.791Z" transform="translate(-3.359 -4.53)" fill="#a70982"/>
    <path id="Shape-3" data-name="Shape" d="M56.526,35.312l-7,15.228a1.648,1.648,0,0,0-.714-.615l-11.5-5.281.886-1.926a6.049,6.049,0,0,1,2.613-2.8,6.368,6.368,0,0,0,2.9-2.677L45.105,34.2a3.242,3.242,0,0,1,2.487-1.881A1.838,1.838,0,0,1,49.4,33.476l.633-1.366a2.431,2.431,0,0,0,.217-.787l1.583-12.3a1.738,1.738,0,0,1,1.384-1.519,1.8,1.8,0,0,1,2.152,1.528l1.519,13.89a4.413,4.413,0,0,1-.362,2.387Z" transform="translate(-3.57 -1.672)" fill="#ffe0b2"/>
    <path id="Shape-4" data-name="Shape" d="M57.955,32.924l-1.519-13.89a1.8,1.8,0,0,0-2.152-1.528,1.727,1.727,0,0,0-.981.6,1.744,1.744,0,0,1,.42.933l1.519,13.89a4.413,4.413,0,0,1-.362,2.387L48.46,49.275l1.417.65a1.648,1.648,0,0,1,.714.615l7-15.228a4.413,4.413,0,0,0,.362-2.387Z" transform="translate(-4.637 -1.672)" fill="#dfc49c"/>
    <path id="Shape-5" data-name="Shape" d="M23.631,52.431,12.12,57.721a1.809,1.809,0,0,1-2.4-.9l-.751-1.637A1.784,1.784,0,0,1,9.144,53.4a1.648,1.648,0,0,1,.714-.615l11.5-5.281a1.809,1.809,0,0,1,2.4.886l.76,1.646a1.809,1.809,0,0,1-.886,2.4Z" transform="translate(-0.843 -4.53)" fill="#ee13ba"/>
    <path id="Shape-6" data-name="Shape" d="M20.614,44.644l-11.5,5.281a1.648,1.648,0,0,0-.714.615l-7-15.228a4.413,4.413,0,0,1-.362-2.387l1.519-13.89a1.8,1.8,0,0,1,2.152-1.528,1.738,1.738,0,0,1,1.384,1.519l1.583,12.3a2.431,2.431,0,0,0,.217.787l.633,1.366a1.838,1.838,0,0,1,1.809-1.158A3.242,3.242,0,0,1,12.819,34.2l1.393,3.038a6.368,6.368,0,0,0,2.9,2.677,6.049,6.049,0,0,1,2.613,2.8Z" transform="translate(-0.096 -1.672)" fill="#ffe0b2"/>
    <path id="Shape-7" data-name="Shape" d="M27.874,6.426H11.19A8.709,8.709,0,0,1,19.157,1C24.2,1,26.988,4.907,27.874,6.426Z" transform="translate(-1.071 -0.096)" fill="#f92a1a"/>
    <path id="Shape-8" data-name="Shape" d="M47.044,6.426H30.36C31.246,4.907,34.031,1,39.077,1A8.709,8.709,0,0,1,47.044,6.426Z" transform="translate(-2.905 -0.096)" fill="#f92a1a"/>
    <path id="Shape-9" data-name="Shape" d="M39.856,1a9.3,9.3,0,0,0-1.356.108,8.848,8.848,0,0,1,6.61,5.318h2.713A8.709,8.709,0,0,0,39.856,1Z" transform="translate(-3.684 -0.096)" fill="#c81e1e"/>
    <path id="Shape-10" data-name="Shape" d="M46.172,12.055c0,.127,0,.244-.009.371H10.009C10,12.3,10,12.182,10,12.055A12.027,12.027,0,0,1,11.076,7H27.76c.217.371.326.6.326.6s.109-.226.326-.6H45.1a12.027,12.027,0,0,1,1.076,5.055Z" transform="translate(-0.957 -0.67)" fill="#ff9800"/>
    <path id="Shape-11" data-name="Shape" d="M48.523,7H45.81a12.027,12.027,0,0,1,1.076,5.055c0,.127,0,.244-.009.371H49.59c.009-.127.009-.244.009-.371A12.027,12.027,0,0,0,48.523,7Z" transform="translate(-4.384 -0.67)" fill="#f57c00"/>
    <path id="Shape-12" data-name="Shape" d="M46.164,13a12.34,12.34,0,0,1-1.456,5.426H11.466A12.34,12.34,0,0,1,10.01,13Z" transform="translate(-0.958 -1.244)" fill="#ffdc00"/>
    <path id="Shape-13" data-name="Shape" d="M46.836,13a12.34,12.34,0,0,1-1.456,5.426h2.713A12.34,12.34,0,0,0,49.549,13Z" transform="translate(-4.343 -1.244)" fill="#fec108"/>
    <path id="Shape-14" data-name="Shape" d="M44.862,19a25.04,25.04,0,0,1-4.024,5.426H15.644A25.04,25.04,0,0,1,11.62,19Z" transform="translate(-1.112 -1.818)" fill="#65bb0f"/>
    <path id="Shape-15" data-name="Shape" d="M44.954,19a25.04,25.04,0,0,1-4.024,5.426h2.713A25.04,25.04,0,0,0,47.667,19Z" transform="translate(-3.917 -1.818)" fill="#549414"/>
    <path id="Shape-16" data-name="Shape" d="M41.264,25c-1.583,1.7-3.482,3.482-5.625,5.426H21.695C19.552,28.482,17.653,26.7,16.07,25Z" transform="translate(-1.538 -2.392)" fill="#00b0ff"/>
    <path id="Shape-17" data-name="Shape" d="M40.335,25c-1.583,1.7-3.482,3.482-5.625,5.426h2.713C39.566,28.482,41.465,26.7,43.048,25Z" transform="translate(-3.321 -2.392)" fill="#0377bc"/>
    <path id="Shape-18" data-name="Shape" d="M36.234,31c-2.1,1.917-4.44,3.988-6.972,6.33C26.73,34.988,24.388,32.917,22.29,31Z" transform="translate(-2.133 -2.967)" fill="#c132d8"/>
    <path id="Shape-19" data-name="Shape" d="M34.116,31c-1.718,1.568-3.6,3.248-5.616,5.087.452.409.9.814,1.356,1.243,2.532-2.342,4.874-4.413,6.972-6.33Z" transform="translate(-2.727 -2.967)" fill="#6a1b9a"/>
    <g id="Grupo_1079761" data-name="Grupo 1079761">
      <path id="Shape-20" data-name="Shape" d="M55.821,18.831a2.693,2.693,0,0,0-1.1-1.851,2.721,2.721,0,0,0-2.132-.452,2.622,2.622,0,0,0-2.1,2.286L48.9,31.133a1.572,1.572,0,0,1-.137.506l-.053.115a2.894,2.894,0,0,0-1.691-.424,4.169,4.169,0,0,0-3.18,2.4l-1.4,3.038a5.434,5.434,0,0,1-2.5,2.261,6.979,6.979,0,0,0-3.016,3.227L36.347,43.5a2.707,2.707,0,0,0-2.706,1.558l-.756,1.64a2.713,2.713,0,0,0,1.334,3.6l11.5,5.286a2.713,2.713,0,0,0,3.6-1.333l.755-1.643a2.7,2.7,0,0,0,.017-2.2L56.9,35.6a5.3,5.3,0,0,0,.445-2.868ZM48.429,51.856,47.674,53.5a.9.9,0,0,1-1.2.444l-11.5-5.285a.9.9,0,0,1-.445-1.2l.756-1.644a.9.9,0,0,1,1.2-.444l11.5,5.285A.9.9,0,0,1,48.429,51.856Zm6.82-17.015L48.738,49.012,38.061,44.106l.506-1.1a5.164,5.164,0,0,1,2.226-2.387,7.041,7.041,0,0,0,3.3-3.1l1.394-3.038a2.333,2.333,0,0,1,1.726-1.356.917.917,0,0,1,.729.307L46.392,36.8a6.552,6.552,0,0,0-.508,3.837l.09.559a.9.9,0,1,0,1.783-.3l-.09-.558a4.746,4.746,0,0,1,.368-2.783l2.371-5.164a3.355,3.355,0,0,0,.291-1.053l1.588-12.317a.831.831,0,0,1,.669-.723.9.9,0,0,1,.709.152.863.863,0,0,1,.362.591l1.521,13.9a3.5,3.5,0,0,1-.293,1.9Z" transform="translate(-3.123 -1.576)"/>
      <path id="Shape-21" data-name="Shape" d="M23.741,45.06A2.713,2.713,0,0,0,21.035,43.5l-.576-1.253a6.979,6.979,0,0,0-3.016-3.227,5.434,5.434,0,0,1-2.5-2.261l-1.4-3.038a4.18,4.18,0,0,0-3.216-2.4,2.845,2.845,0,0,0-1.657.426l-.052-.113a1.628,1.628,0,0,1-.139-.528L6.9,18.841a2.633,2.633,0,0,0-2.1-2.313,2.706,2.706,0,0,0-3.234,2.32L.042,32.714A5.315,5.315,0,0,0,.484,35.6l6.8,14.813a2.7,2.7,0,0,0,.016,2.2l.754,1.643a2.713,2.713,0,0,0,3.6,1.333l11.5-5.286a2.713,2.713,0,0,0,1.334-3.6ZM1.838,32.925,3.355,19.054a.87.87,0,0,1,.362-.6.9.9,0,0,1,.713-.15.836.836,0,0,1,.667.746L6.68,31.318a3.421,3.421,0,0,0,.293,1.075l2.372,5.164a4.746,4.746,0,0,1,.368,2.783l-.09.558a.9.9,0,1,0,1.783.3l.09-.558a6.553,6.553,0,0,0-.508-3.838L9.441,33.433a.911.911,0,0,1,.677-.312A2.341,2.341,0,0,1,11.9,34.478l1.4,3.04a7.041,7.041,0,0,0,3.3,3.1A5.161,5.161,0,0,1,18.815,43l.506,1.1L8.639,49.012,2.128,34.84a3.527,3.527,0,0,1-.29-1.915ZM22.879,48.148a.9.9,0,0,1-.47.507L10.9,53.943A.9.9,0,0,1,9.7,53.5l-.751-1.643a.9.9,0,0,1,.444-1.2l11.5-5.285a.9.9,0,0,1,1.2.444l.754,1.644a.9.9,0,0,1,.024.689Z" transform="translate(0 -1.576)"/>
      <path id="Shape-22" data-name="Shape" d="M46.981,11.382C46.981,4.893,42.7,0,37.033,0A10.959,10.959,0,0,0,27.99,5.141,10.959,10.959,0,0,0,18.947,0C13.276,0,9,4.893,9,11.382c0,7.054,5.447,11.959,13.692,19.386,1.473,1.327,3.038,2.737,4.684,4.259a.9.9,0,0,0,1.228,0c1.646-1.522,3.211-2.933,4.684-4.259,8.245-7.427,13.692-12.335,13.692-19.386ZM17.537,23.512H38.444c-1.156,1.151-2.442,2.351-3.829,3.617H21.365c-1.391-1.266-2.673-2.466-3.829-3.617ZM10.889,12.66h34.2a11.605,11.605,0,0,1-1.068,3.617H11.957a11.6,11.6,0,0,1-1.068-3.617Zm32.135,5.426A27.31,27.31,0,0,1,40.177,21.7H15.8a27.31,27.31,0,0,1-2.848-3.617ZM37.033,1.809a7.652,7.652,0,0,1,6.455,3.617H30.039A8.946,8.946,0,0,1,37.033,1.809Zm-8.222,5.5.035-.071H44.414a11.308,11.308,0,0,1,.737,3.617H10.829a11.308,11.308,0,0,1,.737-3.617H27.134l.036.073a.9.9,0,0,0,1.641,0Zm-9.864-5.5a8.909,8.909,0,0,1,7.014,3.617H12.492A7.652,7.652,0,0,1,18.947,1.809ZM27.99,33.134C26.562,31.821,25.2,30.59,23.9,29.426l-.543-.487h9.258l-.543.487c-1.29,1.164-2.657,2.395-4.085,3.708Z" transform="translate(-0.861)"/>
    </g>
  </g>
</svg>
